# xmcd
#
# Track frame offsets:
#	150
#	35350
#	59763
#	123528
#	143019
#	159426
#	174783
#	244049
#	278178
#	290358
#
# Disc length: 4326 seconds
#
# Revision: 0
# Processed by: cddbd v1.4PL0 Copyright (c) Steve Scherf et al.
# Submitted via: EasyCDDAExtractor 4.6.0.1
#
DISCID=8b10e40a
DTITLE=Fleetwood Mac - Show-Biz Blues - Fleetwood Mac 1968 to 1970 - Volume 2 
DTITLE=Disc 2
DYEAR=1900
DGENRE=
TTITLE0=Black Magic Woman
TTITLE1=Jumpin' At Shadows
TTITLE2=A:Rattlesnake Shake B:Underway
TTITLE3=Stranger Blues
TTITLE4=World In Harmony
TTITLE5=Tiger
TTITLE6=(The) Green Manalishi (With The Two Pronged Crown)
TTITLE7=Coming Your Way
TTITLE8=Great Balls Of Fire
TTITLE9=Twist And Shout
EXTD=
EXTT0=
EXTT1=
EXTT2=
EXTT3=
EXTT4=
EXTT5=
EXTT6=
EXTT7=
EXTT8=
EXTT9=
PLAYORDER=
